<?xml version="1.0" standalone="no"?>
<!DOCTYPE svg PUBLIC "-//W3C//DTD SVG 20010904//EN"
 "http://www.w3.org/TR/2001/REC-SVG-20010904/DTD/svg10.dtd">
<svg version="1.0" xmlns="http://www.w3.org/2000/svg"
 width="512.000000pt" height="512.000000pt" viewBox="0 0 512.000000 512.000000"
 preserveAspectRatio="xMidYMid meet">
<metadata>
Created by potrace 1.14, written by Peter Selinger 2001-2017
</metadata>
<g transform="translate(0.000000,512.000000) scale(0.100000,-0.100000)"
fill="#000000" stroke="none">
<path d="M4262 4988 c-7 -7 -12 -40 -12 -79 l0 -66 45 -5 c28 -4 56 -15 75
-32 38 -31 52 -32 110 -3 60 29 63 53 13 108 -63 70 -194 114 -231 77z"/>
<path d="M3940 4941 c-120 -45 -128 -49 -135 -70 -4 -12 4 -39 20 -70 19 -39
31 -51 48 -51 35 1 199 66 209 84 12 22 -17 122 -38 130 -21 8 -19 9 -104 -23z"/>
<path d="M2380 4914 c-92 -12 -353 -71 -413 -93 -18 -7 -16 -9 18 -15 113 -22
185 -106 185 -220 1 -84 69 -174 150 -196 19 -6 137 -10 261 -10 246 0 290 -7
352 -55 49 -37 87 -115 87 -180 0 -101 -79 -214 -187 -268 -59 -29 -76 -34
-185 -46 -137 -16 -156 -28 -403 -271 -229 -225 -282 -266 -419 -331 -133 -62
-221 -79 -446 -86 -212 -6 -238 -12 -292 -70 -30 -31 -58 -100 -58 -143 0 -43
28 -112 58 -143 54 -57 72 -62 270 -67 l184 -5 24 -28 c34 -39 31 -81 -6 -119
l-31 -31 -92 7 c-292 22 -538 130 -752 329 -84 77 -149 164 -182 241 -28 68
-46 182 -37 247 4 27 4 49 1 49 -4 0 -27 -64 -52 -142 -50 -156 -88 -331 -104
-480 -14 -125 -14 -401 0 -526 46 -431 216 -851 492 -1217 83 -110 332 -356
447 -441 605 -451 1333 -597 2064 -413 526 132 1009 462 1349 921 l27 36 -49
-20 c-64 -28 -128 -19 -177 24 -19 17 -40 40 -47 52 -9 15 -13 132 -17 411 -5
376 -6 391 -27 430 -25 47 -75 96 -120 119 -18 9 -76 21 -129 26 -57 6 -120
20 -155 34 -63 25 -144 81 -154 106 -9 22 295 318 360 350 28 13 63 35 78 47
30 24 134 76 177 88 14 4 32 13 40 20 8 7 26 15 39 17 13 1 29 11 35 20 9 15
-18 47 -192 221 l-204 204 89 5 c48 3 203 2 343 -1 250 -7 256 -7 305 -33 54
-28 123 -95 149 -143 l16 -30 -6 30 c-3 17 -25 89 -49 161 -288 874 -1058
1509 -1975 1628 -144 19 -495 18 -640 0z m263 -1 c-7 -2 -21 -2 -30 0 -10 3
-4 5 12 5 17 0 24 -2 18 -5z m-75 -10 c-10 -2 -26 -2 -35 0 -10 3 -2 5 17 5
19 0 27 -2 18 -5z m-70 -10 c-10 -2 -26 -2 -35 0 -10 3 -2 5 17 5 19 0 27 -2
18 -5z m-75 -10 c-7 -2 -21 -2 -30 0 -10 3 -4 5 12 5 17 0 24 -2 18 -5z m-70
-10 c-7 -2 -19 -2 -25 0 -7 3 -2 5 12 5 14 0 19 -2 13 -5z m1509 -1313 c46
-13 95 -68 104 -117 30 -161 -148 -468 -486 -836 -67 -74 -71 -81 -66 -115 3
-21 13 -98 21 -172 22 -190 21 -188 56 -195 78 -17 133 -110 110 -186 -11 -35
-70 -99 -91 -99 -6 0 -10 -8 -10 -19 0 -13 10 -21 34 -25 46 -9 91 -53 107
-104 11 -38 10 -48 -7 -90 -13 -32 -32 -55 -58 -72 l-38 -24 7 -77 c5 -59 3
-83 -8 -105 -17 -32 -258 -274 -273 -274 -22 1 -36 23 -89 145 -96 219 -316
729 -326 753 -8 22 -16 17 -141 -95 -225 -200 -561 -474 -716 -582 -55 -39
-62 -48 -58 -70 3 -14 12 -80 21 -146 8 -66 18 -132 21 -148 5 -23 -4 -37 -62
-97 -42 -44 -75 -70 -89 -70 -16 0 -34 20 -70 78 -27 42 -68 107 -92 144 l-42
67 -68 -31 c-80 -38 -162 -48 -182 -24 -21 25 -9 104 27 179 l31 67 -67 43
c-37 23 -102 65 -144 92 -56 35 -78 54 -78 69 0 12 27 47 62 83 73 74 65 73
278 43 79 -11 147 -17 150 -13 4 5 62 81 129 169 136 181 321 405 493 599 64
72 113 133 110 136 -4 3 -208 92 -454 199 -403 173 -448 195 -448 215 0 28
210 251 263 279 29 16 44 18 109 10 l75 -10 21 37 c22 38 89 79 128 79 63 -1
144 -72 144 -126 0 -21 32 -44 37 -27 11 31 47 75 75 89 43 22 106 22 145 -1
32 -19 73 -80 73 -109 0 -20 6 -21 223 -46 l178 -21 92 84 c259 236 499 401
660 453 80 26 124 29 179 14z"/>
<path d="M3353 3277 c-31 -17 -173 -147 -173 -158 0 -5 8 -9 18 -9 31 -1 130
-46 173 -81 54 -42 114 -135 129 -199 7 -29 18 -50 25 -50 20 0 162 166 168
197 10 56 -49 172 -116 227 -51 42 -142 86 -177 86 -14 -1 -35 -6 -47 -13z"/>
<path d="M1480 1010 c8 -5 22 -9 30 -9 10 0 8 3 -5 9 -27 12 -43 12 -25 0z"/>
<path d="M4413 4619 c-6 -8 -14 -28 -18 -44 -4 -17 -16 -60 -28 -97 -23 -76
-19 -89 41 -114 42 -17 76 -18 90 -1 13 16 49 132 57 188 8 56 -2 66 -76 75
-40 5 -58 3 -66 -7z"/>
<path d="M1600 4452 c-96 -53 -96 -191 0 -244 116 -64 249 76 180 189 -39 65
-118 89 -180 55z"/>
<path d="M989 3204 c-43 -45 -43 -46 -12 -30 31 16 71 62 61 71 -2 3 -24 -16
-49 -41z"/>
<path d="M316 1564 c-29 -28 -20 -49 35 -82 60 -36 99 -27 99 24 0 15 -85 74
-106 74 -7 0 -20 -7 -28 -16z"/>
<path d="M144 1248 c-58 -120 -57 -144 10 -170 26 -10 56 -16 66 -13 21 7 104
184 98 211 -4 22 -73 64 -106 64 -19 0 -30 -16 -68 -92z"/>
<path d="M20 890 c-7 -14 -13 -66 -13 -126 -1 -111 7 -134 50 -134 25 0 103
36 103 48 9 193 9 202 -11 213 -11 5 -41 13 -68 16 -44 5 -50 3 -61 -17z"/>
<path d="M751 727 c-47 -23 -89 -49 -94 -57 -12 -21 29 -117 53 -125 11 -3 58
14 117 42 113 56 123 72 78 142 -32 52 -46 51 -154 -2z"/>
<path d="M333 601 c-39 -3 -74 -9 -78 -12 -3 -4 -13 -31 -20 -60 -13 -48 -13
-55 3 -72 15 -17 27 -19 114 -14 53 3 109 11 125 19 24 12 28 19 26 52 -2 20
-8 49 -15 64 -15 31 -34 33 -155 23z"/>
</g>
</svg>
